<?xml version="1.0" encoding="utf-8"?>
<!-- Generator: Adobe Illustrator 15.1.0, SVG Export Plug-In . SVG Version: 6.00 Build 0)  -->
<!DOCTYPE svg PUBLIC "-//W3C//DTD SVG 1.1//EN" "http://www.w3.org/Graphics/SVG/1.1/DTD/svg11.dtd">
<svg version="1.1" id="Layer_1" xmlns="http://www.w3.org/2000/svg" xmlns:xlink="http://www.w3.org/1999/xlink" x="0px" y="0px"
	 width="364px" height="80px" viewBox="-0.403 0 364 80" enable-background="new -0.403 0 364 80" xml:space="preserve">
<g>
	<g>
		<path fill="#010202" d="M119.667,13.158v-2.796c0-0.397-0.318-0.679-0.718-0.679h-17.314c-0.384,0-0.703,0.281-0.703,0.679v2.796
			c0,0.398,0.319,0.641,0.703,0.641h6.207v21.406c0,0.384,0.31,0.705,0.707,0.705h3.5c0.385,0,0.706-0.321,0.706-0.705V13.799h6.194
			C119.348,13.799,119.667,13.556,119.667,13.158z"/>
		<path fill="#010202" d="M142.392,35.205V10.388c0-0.396-0.321-0.68-0.704-0.68h-3.516c-0.385,0-0.706,0.284-0.706,0.68v9.811
			H127.44v-9.811c0-0.396-0.321-0.68-0.706-0.68h-3.501c-0.399,0-0.72,0.284-0.72,0.68v24.817c0,0.384,0.32,0.705,0.72,0.705h3.501
			c0.384,0,0.706-0.321,0.706-0.705V24.367h10.026v10.838c0,0.384,0.321,0.705,0.706,0.705h3.516
			C142.07,35.91,142.392,35.589,142.392,35.205z"/>
		<path fill="#010202" d="M162.82,34.935v-2.232c0-0.384-0.319-0.705-0.704-0.705h-7.234c-2.051,0-2.795-0.707-2.795-3.065V24.34
			h9.594c0.397,0,0.718-0.307,0.718-0.679v-2.487c0-0.384-0.32-0.693-0.718-0.693h-9.594V16.66c0-2.334,0.745-3.04,2.795-3.04h7.234
			c0.385,0,0.704-0.322,0.704-0.705v-2.233c0-0.499-0.178-0.666-0.704-0.744c-1.142-0.167-2.513-0.488-6.733-0.488
			c-4.614,0-8.22,1.231-8.22,7.209v12.272c0,6.002,3.605,7.233,8.22,7.233c4.221,0,5.592-0.321,6.733-0.488
			C162.642,35.602,162.82,35.435,162.82,34.935z"/>
		<path fill="#010202" d="M191.061,34.806v-2.347c0-0.424-0.181-0.742-0.718-0.742h-0.064c-1.243,0.101-3.655,0.281-5.526,0.281
			c-2.975,0-5.13-1.693-5.13-6.593v-5.193c0-5.001,2.155-6.591,5.13-6.591c1.871,0,4.283,0.179,5.526,0.282h0.064
			c0.537,0,0.718-0.32,0.718-0.744v-2.347c0-0.487-0.319-0.653-0.782-0.795c-0.538-0.141-2.872-0.565-5.592-0.565
			c-4.256,0-9.989,1.924-9.989,10.761v5.193c0,8.696,5.733,10.761,9.989,10.761c2.72,0,5.054-0.424,5.592-0.564
			C190.742,35.461,191.061,35.293,191.061,34.806z"/>
		<path fill="#010202" d="M206.785,24.688h-6.234l2.554-10.517c0.102-0.423,0.218-0.564,0.563-0.564
			c0.358,0,0.461,0.142,0.563,0.564L206.785,24.688z M214.44,35.307c0-0.04-0.039-0.102-0.039-0.179l-5.809-22.045
			c-0.847-3.296-3.399-3.616-4.925-3.616c-1.524,0-4.062,0.32-4.924,3.616l-5.798,22.045c0,0.078-0.039,0.139-0.039,0.179
			c0,0.358,0.284,0.603,0.642,0.603h3.745c0.321,0,0.604-0.282,0.681-0.603l1.631-6.759h8.142l1.628,6.759
			c0.065,0.321,0.346,0.603,0.667,0.603h3.758C214.146,35.91,214.44,35.665,214.44,35.307z"/>
		<path fill="#010202" d="M232.087,34.935v-2.232c0-0.384-0.319-0.705-0.719-0.705h-6.515c-2.053,0-2.76-0.707-2.76-3.025V10.415
			c0-0.385-0.319-0.706-0.704-0.706h-3.514c-0.386,0-0.706,0.321-0.706,0.706v18.558c0,5.962,3.578,7.193,8.186,7.193
			c1.869,0,4.961-0.245,6.013-0.488C231.908,35.577,232.087,35.435,232.087,34.935z"/>
		<path fill="#010202" d="M249.913,34.935v-2.232c0-0.384-0.32-0.705-0.704-0.705h-6.516c-2.051,0-2.771-0.707-2.771-3.025V10.415
			c0-0.385-0.318-0.706-0.706-0.706h-3.5c-0.396,0-0.706,0.321-0.706,0.706v18.558c0,5.962,3.565,7.193,8.17,7.193
			c1.885,0,4.963-0.245,6.027-0.488C249.734,35.577,249.913,35.435,249.913,34.935z"/>
		<path fill="#010202" d="M118.167,68.445v-2.336c0-0.422-0.18-0.741-0.718-0.741h-0.066c-1.242,0.103-3.641,0.282-5.525,0.282
			c-2.977,0-5.129-1.693-5.129-6.594v-5.193c0-5.014,2.153-6.59,5.129-6.59c1.885,0,4.283,0.164,5.525,0.281h0.066
			c0.538,0,0.718-0.32,0.718-0.746v-2.346c0-0.486-0.322-0.667-0.784-0.795c-0.524-0.143-2.873-0.562-5.59-0.562
			c-4.258,0-9.991,1.924-9.991,10.759v5.194c0,8.692,5.733,10.76,9.991,10.76c2.718,0,5.065-0.422,5.59-0.565
			C117.846,69.111,118.167,68.945,118.167,68.445z"/>
		<path fill="#010202" d="M137.646,68.586v-2.232c0-0.383-0.319-0.703-0.705-0.703h-7.232c-2.052,0-2.796-0.707-2.796-3.063v-4.592
			h9.591c0.399,0,0.721-0.31,0.721-0.693v-2.475c0-0.384-0.321-0.692-0.721-0.692h-9.591v-3.82c0-2.334,0.744-3.037,2.796-3.037
			h7.232c0.386,0,0.705-0.322,0.705-0.709v-2.243c0-0.487-0.18-0.654-0.705-0.729c-1.141-0.181-2.514-0.488-6.734-0.488
			c-4.616,0-8.22,1.219-8.22,7.207v12.273c0,6,3.604,7.232,8.22,7.232c4.221,0,5.595-0.32,6.734-0.487
			C137.467,69.252,137.646,69.087,137.646,68.586z"/>
		<path fill="#010202" d="M161.795,68.15V44.027c0-0.383-0.283-0.668-0.679-0.668h-3.041c-0.396,0-0.679,0.285-0.679,0.668v18.559
			c0,0.205-0.103,0.307-0.168,0.307c-0.116,0-0.218-0.102-0.281-0.283l-8.233-18.119c-0.423-0.926-0.808-1.131-1.551-1.131h-3.822
			c-0.78,0-1.41,0.627-1.41,1.41v24.086c0,0.386,0.309,0.705,0.705,0.705h3.016c0.383,0,0.667-0.319,0.667-0.705V51.121
			c0-0.219,0.062-0.284,0.179-0.284c0.103,0,0.205,0.065,0.318,0.284l7.836,17.17c0.562,1.27,1.296,1.27,2.155,1.27h3.564
			C161.154,69.561,161.795,68.932,161.795,68.15z"/>
		<path fill="#010202" d="M183.648,46.809v-2.793c0-0.396-0.32-0.681-0.717-0.681h-17.312c-0.387,0-0.707,0.283-0.707,0.681v2.793
			c0,0.398,0.32,0.644,0.707,0.644h6.194v21.405c0,0.385,0.318,0.703,0.715,0.703h3.501c0.388,0,0.706-0.318,0.706-0.703V47.451
			h6.196C183.328,47.451,183.648,47.207,183.648,46.809z"/>
		<path fill="#010202" d="M202.153,68.586v-2.232c0-0.383-0.319-0.703-0.716-0.703h-7.222c-2.052,0-2.795-0.707-2.795-3.063v-4.592
			h9.594c0.396,0,0.718-0.31,0.718-0.693v-2.475c0-0.384-0.32-0.692-0.718-0.692h-9.594v-3.82c0-2.334,0.744-3.037,2.795-3.037
			h7.222c0.396,0,0.716-0.322,0.716-0.709v-2.243c0-0.487-0.178-0.654-0.716-0.729c-1.13-0.181-2.517-0.488-6.721-0.488
			c-4.616,0-8.221,1.219-8.221,7.207v12.273c0,6,3.604,7.232,8.221,7.232c4.205,0,5.591-0.32,6.721-0.487
			C201.975,69.252,202.153,69.087,202.153,68.586z"/>
		<path fill="#010202" d="M219.802,51.338c0,3.092-1.654,4.077-5.298,4.077c-0.603,0-2.59-0.078-3.153-0.115v-7.887
			c0.641-0.079,2.41-0.14,3.153-0.14c3.527,0,5.298,1.112,5.298,3.744V51.338z M225.573,69.125c0-0.064,0-0.18-0.066-0.282
			l-5.59-10.425c2.922-1.09,4.812-3.359,4.812-7.079V51.02c0-5.99-4.786-7.914-10.225-7.914c-2.59,0-5.104,0.18-6.938,0.449
			c-0.718,0.114-1.141,0.357-1.141,1.051v24.237c0,0.398,0.319,0.718,0.704,0.718h3.552c0.386,0,0.669-0.318,0.669-0.718v-9.708
			c0.808,0.039,2.231,0.141,3.153,0.141h0.489l5.104,9.566c0.167,0.36,0.321,0.719,0.704,0.719h4.349
			C225.43,69.561,225.573,69.381,225.573,69.125z"/>
		<path fill="#010202" d="M253.298,62.469c0-2.781-1.036-5.039-4.948-7.195l-4.231-2.357c-2.283-1.271-2.873-1.977-2.873-3.145
			c0-1.588,1.09-2.498,3.681-2.498c2.295,0,4.631,0.142,6.977,0.347h0.08c0.356,0,0.601-0.284,0.601-0.629V44.4
			c0-0.346-0.28-0.604-0.64-0.668c-1.207-0.282-4.479-0.627-6.797-0.627c-6.556,0-8.826,2.795-8.826,6.668
			c0,2.475,0.887,4.515,4.181,6.451l4.646,2.795c2.319,1.375,2.988,2.078,2.988,3.451c0,2.051-0.947,3.182-4.078,3.182
			c-1.311,0-4.836-0.18-6.244-0.348h-0.078c-0.348,0-0.666,0.281-0.666,0.668v2.512c0,0.388,0.318,0.629,0.666,0.707
			c1.705,0.384,3.615,0.629,6.246,0.629C251.055,69.818,253.298,66.034,253.298,62.469z"/>
		<path fill="#010202" d="M272.602,68.445v-2.336c0-0.422-0.17-0.741-0.709-0.741h-0.063c-1.242,0.103-3.655,0.282-5.526,0.282
			c-2.977,0-5.129-1.693-5.129-6.594v-5.193c0-5.014,2.153-6.59,5.129-6.59c1.872,0,4.284,0.164,5.526,0.281h0.063
			c0.539,0,0.709-0.32,0.709-0.746v-2.346c0-0.486-0.322-0.667-0.772-0.795c-0.538-0.143-2.872-0.562-5.603-0.562
			c-4.246,0-9.979,1.924-9.979,10.759v5.194c0,8.692,5.731,10.76,9.979,10.76c2.729,0,5.063-0.422,5.603-0.565
			C272.279,69.111,272.602,68.945,272.602,68.445z"/>
		<path fill="#010202" d="M296.312,68.855v-24.83c0-0.383-0.321-0.666-0.721-0.666h-3.501c-0.384,0-0.707,0.283-0.707,0.666v9.824
			h-10.026v-9.824c0-0.383-0.319-0.666-0.705-0.666h-3.514c-0.387,0-0.707,0.283-0.707,0.666v24.83c0,0.385,0.32,0.705,0.707,0.705
			h3.514c0.385,0,0.705-0.32,0.705-0.705V58.018h10.026v10.84c0,0.385,0.323,0.703,0.707,0.703h3.501
			C295.992,69.561,296.312,69.24,296.312,68.855z"/>
		<path fill="#010202" d="M315.51,58.854c0,4.692-1.667,6.797-5.142,6.797c-3.477,0-5.144-2.104-5.144-6.797v-4.797
			c0-4.695,1.667-6.783,5.144-6.783c3.475,0,5.142,2.088,5.142,6.783V58.854z M320.433,58.854v-4.797
			c0-7.785-4.218-10.953-10.063-10.953c-5.848,0-10.066,3.168-10.066,10.953v4.797c0,7.795,4.221,10.965,10.066,10.965
			S320.433,66.648,320.433,58.854z"/>
		<path fill="#010202" d="M339.107,58.854c0,4.692-1.668,6.797-5.145,6.797c-3.475,0-5.143-2.104-5.143-6.797v-4.797
			c0-4.695,1.668-6.783,5.143-6.783c3.477,0,5.145,2.088,5.145,6.783V58.854z M344.031,58.854v-4.797
			c0-7.785-4.218-10.953-10.066-10.953c-5.848,0-10.065,3.168-10.065,10.953v4.797c0,7.795,4.218,10.965,10.065,10.965
			C339.813,69.818,344.031,66.648,344.031,58.854z"/>
		<path fill="#010202" d="M363.193,68.586v-2.232c0-0.383-0.322-0.703-0.705-0.703h-6.516c-2.053,0-2.771-0.707-2.771-3.041V44.066
			c0-0.398-0.31-0.707-0.707-0.707h-3.502c-0.396,0-0.704,0.309-0.704,0.707v18.541c0,5.978,3.563,7.209,8.167,7.209
			c1.888,0,4.965-0.244,6.03-0.486C363.014,69.215,363.193,69.087,363.193,68.586z"/>
	</g>
	<g>
		<path fill="#F8A910" d="M40.001,63.014c-12.71,0-23.015-10.304-23.015-23.014s10.305-23.014,23.015-23.014
			c6.839,0,12.981,2.987,17.197,7.725l6.229-17.135C56.843,2.812,48.75,0,40.001,0C17.909,0,0,17.908,0,40
			c0,22.091,17.909,40,40.001,40c8.749,0,16.842-2.811,23.425-7.578l-6.229-17.134C52.982,60.027,46.84,63.014,40.001,63.014z"/>
		<path fill="#FFD782" d="M67.256,10.728l-6.796,18.69c-0.472,1.14-1.594,1.943-2.904,1.943c-1.057,0-1.99-0.521-2.559-1.319
			c-0.002-0.003-0.006-0.004-0.007-0.006C51.763,25.192,46.256,22,40.001,22C30.06,22,22,30.06,22,40c0,9.941,8.062,18,18.001,18
			c6.255,0,11.764-3.193,14.989-8.037c0.003-0.002,0.005-0.004,0.007-0.005c0.568-0.798,1.502-1.317,2.559-1.317
			c1.312,0,2.436,0.803,2.905,1.944l6.795,18.688C75.094,61.969,80.001,51.561,80.001,40C80.001,28.44,75.094,18.029,67.256,10.728z
			"/>
	</g>
</g>
</svg>
